<svg width="236" height="34" viewBox="0 0 236 34" fill="none" xmlns="http://www.w3.org/2000/svg">
<path fill-rule="evenodd" clip-rule="evenodd" d="M18.6573 2.69267L17.082 11.6268H11.6135C6.51168 11.6268 1.64887 15.7602 0.747581 20.862L0.366092 23.0336C-0.531 28.1354 2.87295 32.2689 7.97472 32.2689H12.5357C16.2541 32.2689 19.7964 29.2588 20.4504 25.5406L24.6508 1.72918L18.6573 2.69267ZM14.7771 24.6979C14.5759 25.8465 13.5418 26.7814 12.3932 26.7814H9.62221C7.32914 26.7814 5.79485 24.92 6.19727 22.6227L6.43624 21.2687C6.84285 18.9756 9.03112 17.1101 11.3242 17.1101H16.1151L14.7771 24.6979Z" fill="#414652"/>
<path d="M60.7719 32.2704H66.4479L70.0363 11.9133H64.3603L60.7719 32.2704Z" fill="#414652"/>
<path d="M60.9609 14.5672L60.9617 14.5625C61.1039 13.7576 61.246 12.9527 61.3878 12.1479C55.5636 10.6471 51.0271 12.1997 49.1798 12.9647C49.1798 12.9647 46.5447 27.9015 45.7734 32.2752H51.4532C52.375 27.048 53.2967 21.8196 54.2172 16.5924C55.0696 16.4224 57.844 16.1563 60.5331 16.9919C60.6755 16.1837 60.8182 15.3754 60.9609 14.5672Z" fill="#414652"/>
<path fill-rule="evenodd" clip-rule="evenodd" d="M38.3682 11.6247H33.9539C29.6486 11.6247 25.5448 15.1126 24.7859 19.4179L23.893 24.4778C23.1342 28.7831 26.0059 32.271 30.3112 32.271H39.7098L40.674 26.8003H31.8411C30.4075 26.8003 29.4475 25.639 29.7033 24.2011L29.7326 24.0292H43.9731L44.7863 19.4179C45.545 15.1126 42.6735 11.6247 38.3682 11.6247ZM39.0892 18.9819L39.0557 19.2754H30.5878L30.634 19.0155C30.8895 17.5817 32.1976 16.3199 33.6353 16.3199H36.9429C38.3641 16.3199 39.3241 17.5608 39.0892 18.9819Z" fill="#414652"/>
<path d="M79.9013 25.3406C82.4785 20.704 85.3198 14.6208 86.5037 11.9133H92.1882C90.2533 17.0577 85.8189 25.8088 81.5235 32.2704H75.8433C73.8716 26.1205 72.5984 17.5518 72.3554 11.9133H78.0358C78.1383 13.7526 78.9617 20.5746 79.9013 25.3406Z" fill="#414652"/>
<path d="M98.1119 21.9562C98.1119 20.3602 98.3639 18.8622 98.8679 17.4622C99.3999 16.0342 100.156 14.8022 101.136 13.7662C102.116 12.7022 103.306 11.8622 104.706 11.2462C106.106 10.6302 107.702 10.3222 109.494 10.3222C110.67 10.3222 111.748 10.4342 112.728 10.6582C113.708 10.8542 114.66 11.1482 115.584 11.5402L114.282 16.5382C113.694 16.3142 113.05 16.1182 112.35 15.9502C111.65 15.7822 110.866 15.6982 109.998 15.6982C108.15 15.6982 106.764 16.2722 105.84 17.4202C104.944 18.5682 104.496 20.0802 104.496 21.9562C104.496 23.9442 104.916 25.4842 105.756 26.5762C106.624 27.6682 108.122 28.2142 110.25 28.2142C111.006 28.2142 111.818 28.1442 112.686 28.0042C113.554 27.8642 114.352 27.6402 115.08 27.3322L115.962 32.4562C115.234 32.7642 114.324 33.0302 113.232 33.2542C112.14 33.4782 110.936 33.5902 109.62 33.5902C107.604 33.5902 105.868 33.2962 104.412 32.7082C102.956 32.0922 101.752 31.2662 100.8 30.2302C99.8759 29.1942 99.1899 27.9762 98.7419 26.5762C98.3219 25.1482 98.1119 23.6082 98.1119 21.9562Z" fill="#414652"/>
<path d="M140.07 3.89616V9.48217H131.292V33.0022H124.74V9.48217H115.962V3.89616H140.07Z" fill="#414652"/>
<path d="M152.163 16.4542C151.603 16.3142 150.945 16.1742 150.189 16.0342C149.433 15.8662 148.621 15.7822 147.753 15.7822C147.361 15.7822 146.885 15.8242 146.325 15.9082C145.793 15.9642 145.387 16.0342 145.107 16.1182V33.0022H138.849V12.0862C139.969 11.6942 141.285 11.3302 142.797 10.9942C144.337 10.6302 146.045 10.4482 147.921 10.4482C148.257 10.4482 148.663 10.4762 149.139 10.5322C149.615 10.5602 150.091 10.6162 150.567 10.7002C151.043 10.7562 151.519 10.8402 151.995 10.9522C152.471 11.0362 152.877 11.1482 153.213 11.2882L152.163 16.4542Z" fill="#414652"/>
<path d="M162.499 28.6342C163.115 28.6342 163.703 28.6202 164.263 28.5922C164.823 28.5642 165.271 28.5222 165.607 28.4662V23.7202C165.355 23.6642 164.977 23.6082 164.473 23.5522C163.969 23.4962 163.507 23.4682 163.087 23.4682C162.499 23.4682 161.939 23.5102 161.407 23.5942C160.903 23.6502 160.455 23.7762 160.063 23.9722C159.671 24.1682 159.363 24.4342 159.139 24.7702C158.915 25.1062 158.803 25.5262 158.803 26.0302C158.803 27.0102 159.125 27.6962 159.769 28.0882C160.441 28.4522 161.351 28.6342 162.499 28.6342ZM161.995 10.3222C163.843 10.3222 165.383 10.5322 166.615 10.9522C167.847 11.3722 168.827 11.9742 169.555 12.7582C170.311 13.5422 170.843 14.4942 171.151 15.6142C171.459 16.7342 171.613 17.9802 171.613 19.3522V32.3722C170.717 32.5682 169.471 32.7922 167.875 33.0442C166.279 33.3242 164.347 33.4642 162.079 33.4642C160.651 33.4642 159.349 33.3382 158.173 33.0862C157.025 32.8342 156.031 32.4282 155.191 31.8682C154.351 31.2802 153.707 30.5242 153.259 29.6002C152.811 28.6762 152.587 27.5422 152.587 26.1982C152.587 24.9102 152.839 23.8182 153.343 22.9222C153.875 22.0262 154.575 21.3122 155.443 20.7802C156.311 20.2482 157.305 19.8702 158.425 19.6462C159.545 19.3942 160.707 19.2682 161.911 19.2682C162.723 19.2682 163.437 19.3102 164.053 19.3942C164.697 19.4502 165.215 19.5342 165.607 19.6462V19.0582C165.607 17.9942 165.285 17.1402 164.641 16.4962C163.997 15.8522 162.877 15.5302 161.281 15.5302C160.217 15.5302 159.167 15.6142 158.131 15.7822C157.095 15.9222 156.199 16.1322 155.443 16.4122L154.645 11.3722C155.009 11.2602 155.457 11.1482 155.989 11.0362C156.549 10.8962 157.151 10.7842 157.795 10.7002C158.439 10.5882 159.111 10.5042 159.811 10.4482C160.539 10.3642 161.267 10.3222 161.995 10.3222Z" fill="#414652"/>
<path d="M180.506 21.7882C180.506 23.7202 180.94 25.2742 181.808 26.4502C182.676 27.6262 183.964 28.2142 185.672 28.2142C186.232 28.2142 186.75 28.2002 187.226 28.1722C187.702 28.1162 188.094 28.0602 188.402 28.0042V16.6222C188.01 16.3702 187.492 16.1602 186.848 15.9922C186.232 15.8242 185.602 15.7402 184.958 15.7402C181.99 15.7402 180.506 17.7562 180.506 21.7882ZM194.66 32.2882C194.1 32.4562 193.456 32.6242 192.728 32.7922C192 32.9322 191.23 33.0582 190.418 33.1702C189.634 33.2822 188.822 33.3662 187.982 33.4222C187.17 33.5062 186.386 33.5482 185.63 33.5482C183.81 33.5482 182.186 33.2822 180.758 32.7502C179.33 32.2182 178.126 31.4622 177.146 30.4822C176.166 29.4742 175.41 28.2702 174.878 26.8702C174.374 25.4422 174.122 23.8462 174.122 22.0822C174.122 20.2902 174.346 18.6802 174.794 17.2522C175.242 15.7962 175.886 14.5642 176.726 13.5562C177.566 12.5482 178.588 11.7782 179.792 11.2462C181.024 10.7142 182.424 10.4482 183.992 10.4482C184.86 10.4482 185.63 10.5322 186.302 10.7002C187.002 10.8682 187.702 11.1062 188.402 11.4142V1.41816L194.66 0.410156V32.2882Z" fill="#414652"/>
<path d="M197.37 22.1242C197.37 20.1642 197.664 18.4562 198.252 17.0002C198.868 15.5162 199.666 14.2842 200.646 13.3042C201.626 12.3242 202.746 11.5822 204.006 11.0782C205.294 10.5742 206.61 10.3222 207.954 10.3222C211.09 10.3222 213.568 11.2882 215.388 13.2202C217.208 15.1242 218.118 17.9382 218.118 21.6622C218.118 22.0262 218.104 22.4322 218.076 22.8802C218.048 23.3002 218.02 23.6782 217.992 24.0142H203.796C203.936 25.3022 204.538 26.3242 205.602 27.0802C206.666 27.8362 208.094 28.2142 209.886 28.2142C211.034 28.2142 212.154 28.1162 213.246 27.9202C214.366 27.6962 215.276 27.4302 215.976 27.1222L216.816 32.2042C216.48 32.3722 216.032 32.5402 215.472 32.7082C214.912 32.8762 214.282 33.0162 213.582 33.1282C212.91 33.2682 212.182 33.3802 211.398 33.4642C210.614 33.5482 209.83 33.5902 209.046 33.5902C207.058 33.5902 205.322 33.2962 203.838 32.7082C202.382 32.1202 201.164 31.3222 200.184 30.3142C199.232 29.2782 198.518 28.0602 198.042 26.6602C197.594 25.2602 197.37 23.7482 197.37 22.1242ZM212.07 19.7302C212.042 19.1982 211.944 18.6802 211.776 18.1762C211.636 17.6722 211.398 17.2242 211.062 16.8322C210.754 16.4402 210.348 16.1182 209.844 15.8662C209.368 15.6142 208.766 15.4882 208.038 15.4882C207.338 15.4882 206.736 15.6142 206.232 15.8662C205.728 16.0902 205.308 16.3982 204.972 16.7902C204.636 17.1822 204.37 17.6442 204.174 18.1762C204.006 18.6802 203.88 19.1982 203.796 19.7302H212.07Z" fill="#414652"/>
<path d="M234.161 16.4542C233.601 16.3142 232.943 16.1742 232.187 16.0342C231.431 15.8662 230.619 15.7822 229.751 15.7822C229.359 15.7822 228.883 15.8242 228.323 15.9082C227.791 15.9642 227.385 16.0342 227.105 16.1182V33.0022H220.847V12.0862C221.967 11.6942 223.283 11.3302 224.795 10.9942C226.335 10.6302 228.043 10.4482 229.919 10.4482C230.255 10.4482 230.661 10.4762 231.137 10.5322C231.613 10.5602 232.089 10.6162 232.565 10.7002C233.041 10.7562 233.517 10.8402 233.993 10.9522C234.469 11.0362 234.875 11.1482 235.211 11.2882L234.161 16.4542Z" fill="#414652"/>
</svg>
